<mxfile host="app.diagrams.net" agent="Mozilla/5.0 (Windows NT 10.0; Win64; x64) AppleWebKit/537.36 (KHTML, like Gecko) Chrome/131.0.0.0 Safari/537.36" version="26.0.2">
  <diagram name="第 1 页" id="ImWzjJlC9RAwQVps99Y1">
    <mxGraphModel dx="635" dy="336" grid="1" gridSize="10" guides="1" tooltips="1" connect="1" arrows="1" fold="1" page="1" pageScale="1" pageWidth="2339" pageHeight="3300" math="0" shadow="0">
      <root>
        <mxCell id="0" />
        <mxCell id="1" parent="0" />
        <mxCell id="pnAcOrzet5XJKguN2Ss9-1" value="数据分析" style="swimlane;childLayout=stackLayout;resizeParent=1;resizeParentMax=0;startSize=20;html=1;" vertex="1" parent="1">
          <mxGeometry x="950" y="850" width="1010" height="820" as="geometry" />
        </mxCell>
        <mxCell id="pnAcOrzet5XJKguN2Ss9-2" value="电商平台（下游）" style="swimlane;startSize=20;html=1;" vertex="1" parent="pnAcOrzet5XJKguN2Ss9-1">
          <mxGeometry y="20" width="510" height="800" as="geometry" />
        </mxCell>
        <mxCell id="pnAcOrzet5XJKguN2Ss9-10" value="" style="ellipse;html=1;shape=startState;fillColor=#000000;strokeColor=#ff0000;" vertex="1" parent="pnAcOrzet5XJKguN2Ss9-2">
          <mxGeometry x="230" y="30" width="30" height="30" as="geometry" />
        </mxCell>
        <mxCell id="pnAcOrzet5XJKguN2Ss9-11" value="" style="edgeStyle=orthogonalEdgeStyle;html=1;verticalAlign=bottom;endArrow=open;endSize=8;strokeColor=#ff0000;rounded=0;entryX=0.5;entryY=0;entryDx=0;entryDy=0;" edge="1" source="pnAcOrzet5XJKguN2Ss9-10" parent="pnAcOrzet5XJKguN2Ss9-2" target="pnAcOrzet5XJKguN2Ss9-12">
          <mxGeometry relative="1" as="geometry">
            <mxPoint x="245" y="120" as="targetPoint" />
          </mxGeometry>
        </mxCell>
        <mxCell id="pnAcOrzet5XJKguN2Ss9-12" value="Activity" style="rounded=1;whiteSpace=wrap;html=1;arcSize=40;fontColor=#000000;fillColor=#ffffc0;strokeColor=#ff0000;" vertex="1" parent="pnAcOrzet5XJKguN2Ss9-2">
          <mxGeometry x="185" y="100" width="120" height="40" as="geometry" />
        </mxCell>
        <mxCell id="pnAcOrzet5XJKguN2Ss9-13" value="" style="edgeStyle=orthogonalEdgeStyle;html=1;verticalAlign=bottom;endArrow=open;endSize=8;strokeColor=#ff0000;rounded=0;" edge="1" source="pnAcOrzet5XJKguN2Ss9-12" parent="pnAcOrzet5XJKguN2Ss9-2">
          <mxGeometry relative="1" as="geometry">
            <mxPoint x="245" y="200" as="targetPoint" />
          </mxGeometry>
        </mxCell>
        <mxCell id="pnAcOrzet5XJKguN2Ss9-3" value="维修公司" style="swimlane;startSize=20;html=1;" vertex="1" parent="pnAcOrzet5XJKguN2Ss9-1">
          <mxGeometry x="510" y="20" width="500" height="800" as="geometry" />
        </mxCell>
      </root>
    </mxGraphModel>
  </diagram>
</mxfile>
